# xmcd
#
# Track frame offsets: 
#        150
#        18480
#        31305
#        45220
#        54462
#        69230
#        78925
#        90600
#        105302
#        117805
#        126240
#        138082
#        147837
#        156915
#        177042
#        188750
#        197312
#        213980
#        227030
#        238692
#        252505
#
# Disc length: 3599 seconds
#
# Revision: 0
# Processed by: cddbd v1.5.1PL0 Copyright (c) Steve Scherf et al.
# Submitted via: ExactAudioCopy v0.95a3
#
DISCID=0a0e0d15
DTITLE=Various Artist - Союз 13
DYEAR=1994
DGENRE=Pop
TTITLE0=Вадим Казаченко - На Летящем Коне
TTITLE1=Андрей Губин - Мальчик Бродяга
TTITLE2=Таня Буланова - Плачу
TTITLE3=Дмитрий Маликов - Спой Мне
TTITLE4=Сергей Крылов - Стюардесса
TTITLE5=Игорь Корнилов - Девочка Гитара
TTITLE6=Лена Ильичёва - Города
TTITLE7=Александр Айвазов - Ёжик В Тумане
TTITLE8=Кай Метов - Вспомни Меня
TTITLE9=Александр Новиков - Шансоньетка
TTITLE10=Нона - Я Ручная
TTITLE11=Леонид Агутин - Босоногий Мальчик
TTITLE12=Сергей Чумаков - Валяй, Гуляй
TTITLE13=Евгений Осин - Иволга
TTITLE14=Андрей Державин - В Первый Раз
TTITLE15=Маша Распутина - Много Разных На Свете Песен
TTITLE16=Владимир Кузьмин - Я Не Казанова
TTITLE17=Валерий Меладзе - Романс
TTITLE18=Аркадий Укупник - Сим-Сим, Откройся
TTITLE19=Шахерезада - На Крутом Берегу
TTITLE20=Ефрем Амирамов - Устаю
EXTD=
EXTT0=
EXTT1=
EXTT2=
EXTT3=
EXTT4=
EXTT5=
EXTT6=
EXTT7=
EXTT8=
EXTT9=
EXTT10=
EXTT11=
EXTT12=
EXTT13=
EXTT14=
EXTT15=
EXTT16=
EXTT17=
EXTT18=
EXTT19=
EXTT20=
PLAYORDER=
